<svg width="20" height="21" viewBox="0 0 20 21" fill="none" xmlns="http://www.w3.org/2000/svg">
<path d="M16.6667 6.30341H3.33335C2.41288 6.30341 1.66669 7.0496 1.66669 7.97007V16.3034C1.66669 17.2239 2.41288 17.9701 3.33335 17.9701H16.6667C17.5872 17.9701 18.3334 17.2239 18.3334 16.3034V7.97007C18.3334 7.0496 17.5872 6.30341 16.6667 6.30341Z" stroke="#717B9E" stroke-linecap="round" stroke-linejoin="round"/>
<path d="M13.3334 17.9701V4.63676C13.3334 4.19473 13.1578 3.77081 12.8452 3.45825C12.5326 3.14569 12.1087 2.97009 11.6667 2.97009H8.33335C7.89133 2.97009 7.4674 3.14569 7.15484 3.45825C6.84228 3.77081 6.66669 4.19473 6.66669 4.63676V17.9701" stroke="#717B9E" stroke-linecap="round" stroke-linejoin="round"/>
</svg>
