<svg width="73" height="28" viewBox="0 0 73 28" fill="none" xmlns="http://www.w3.org/2000/svg">
<rect width="73" height="28" rx="14" fill="#E0F8EA"/>
<path d="M12.9588 18.5V9.77273H18.3707V10.9062H14.2756V13.5653H17.983V14.6946H14.2756V18.5H12.9588ZM23.6239 15.7855V11.9545H24.9023V18.5H23.6495V17.3665H23.5813C23.4308 17.7159 23.1893 18.0071 22.8569 18.2401C22.5273 18.4702 22.1168 18.5852 21.6254 18.5852C21.2049 18.5852 20.8327 18.4929 20.5089 18.3082C20.1879 18.1207 19.935 17.8438 19.7504 17.4773C19.5685 17.1108 19.4776 16.6577 19.4776 16.1179V11.9545H20.7518V15.9645C20.7518 16.4105 20.8754 16.7656 21.1225 17.0298C21.3697 17.294 21.6907 17.4261 22.0856 17.4261C22.3242 17.4261 22.5614 17.3665 22.7972 17.2472C23.0359 17.1278 23.2333 16.9474 23.3896 16.706C23.5487 16.4645 23.6268 16.1577 23.6239 15.7855ZM27.8885 9.77273V18.5H26.6143V9.77273H27.8885ZM30.8768 9.77273V18.5H29.6026V9.77273H30.8768ZM38.8221 11.9545V12.9773H35.2468V11.9545H38.8221ZM36.2056 10.3864H37.4798V16.5781C37.4798 16.8253 37.5167 17.0114 37.5906 17.1364C37.6644 17.2585 37.7596 17.3423 37.8761 17.3878C37.9954 17.4304 38.1246 17.4517 38.2638 17.4517C38.3661 17.4517 38.4556 17.4446 38.5323 17.4304C38.609 17.4162 38.6687 17.4048 38.7113 17.3963L38.9414 18.4489C38.8675 18.4773 38.7624 18.5057 38.6261 18.5341C38.4897 18.5653 38.3192 18.5824 38.1147 18.5852C37.7795 18.5909 37.467 18.5312 37.1772 18.4062C36.8874 18.2812 36.6531 18.0881 36.4741 17.8267C36.2951 17.5653 36.2056 17.2372 36.2056 16.8423V10.3864ZM40.2315 18.5V11.9545H41.5057V18.5H40.2315ZM40.875 10.9446C40.6534 10.9446 40.4631 10.8707 40.304 10.723C40.1477 10.5724 40.0696 10.3935 40.0696 10.1861C40.0696 9.97585 40.1477 9.79687 40.304 9.64915C40.4631 9.49858 40.6534 9.4233 40.875 9.4233C41.0966 9.4233 41.2855 9.49858 41.4418 9.64915C41.6009 9.79687 41.6804 9.97585 41.6804 10.1861C41.6804 10.3935 41.6009 10.5724 41.4418 10.723C41.2855 10.8707 41.0966 10.9446 40.875 10.9446ZM43.2198 18.5V11.9545H44.4428V13.0199H44.5238C44.6602 12.6591 44.8832 12.3778 45.1928 12.1761C45.5025 11.9716 45.8732 11.8693 46.305 11.8693C46.7425 11.8693 47.109 11.9716 47.4045 12.1761C47.7028 12.3807 47.9229 12.6619 48.065 13.0199H48.1332C48.2894 12.6705 48.538 12.392 48.8789 12.1847C49.2198 11.9744 49.6261 11.8693 50.0977 11.8693C50.6914 11.8693 51.1758 12.0554 51.5508 12.4276C51.9286 12.7997 52.1175 13.3608 52.1175 14.1108V18.5H50.8434V14.2301C50.8434 13.7869 50.7227 13.4659 50.4812 13.267C50.2397 13.0682 49.9513 12.9688 49.6161 12.9688C49.2013 12.9688 48.8789 13.0966 48.6488 13.3523C48.4187 13.6051 48.3036 13.9304 48.3036 14.3281V18.5H47.0337V14.1491C47.0337 13.794 46.9229 13.5085 46.7013 13.2926C46.4798 13.0767 46.1914 12.9688 45.8363 12.9688C45.5948 12.9688 45.3718 13.0327 45.1673 13.1605C44.9656 13.2855 44.8022 13.4602 44.6772 13.6847C44.555 13.9091 44.494 14.169 44.494 14.4645V18.5H43.2198ZM56.6463 18.6321C56.0014 18.6321 55.446 18.4943 54.9801 18.2188C54.517 17.9403 54.1591 17.5497 53.9062 17.0469C53.6562 16.5412 53.5312 15.9489 53.5312 15.2699C53.5312 14.5994 53.6562 14.0085 53.9062 13.4972C54.1591 12.9858 54.5114 12.5866 54.9631 12.2997C55.4176 12.0128 55.9489 11.8693 56.5568 11.8693C56.9261 11.8693 57.2841 11.9304 57.6307 12.0526C57.9773 12.1747 58.2884 12.3665 58.5639 12.6278C58.8395 12.8892 59.0568 13.2287 59.2159 13.6463C59.375 14.0611 59.4545 14.5653 59.4545 15.1591V15.6108H54.2514V14.6562H58.206C58.206 14.321 58.1378 14.0241 58.0014 13.7656C57.8651 13.5043 57.6733 13.2983 57.4261 13.1477C57.1818 12.9972 56.8949 12.9219 56.5653 12.9219C56.2074 12.9219 55.8949 13.0099 55.6278 13.1861C55.3636 13.3594 55.1591 13.5866 55.0142 13.8679C54.8722 14.1463 54.8011 14.4489 54.8011 14.7756V15.5213C54.8011 15.9588 54.8778 16.331 55.0312 16.6378C55.1875 16.9446 55.4048 17.179 55.6832 17.3409C55.9616 17.5 56.2869 17.5795 56.6591 17.5795C56.9006 17.5795 57.1207 17.5455 57.3196 17.4773C57.5185 17.4062 57.6903 17.3011 57.8352 17.1619C57.9801 17.0227 58.0909 16.8509 58.1676 16.6463L59.3736 16.8636C59.277 17.2187 59.1037 17.5298 58.8537 17.7969C58.6065 18.0611 58.2955 18.267 57.9205 18.4148C57.5483 18.5597 57.1236 18.6321 56.6463 18.6321Z" fill="#0F7137"/>
</svg>
