<svg width="48" height="11" viewBox="0 0 48 11" fill="none" xmlns="http://www.w3.org/2000/svg">
<path d="M0.958807 9.97009V1.24282H6.37074V2.37634H2.27557V5.03543H5.98295V6.16469H2.27557V9.97009H0.958807ZM11.6239 7.2556V3.42464H12.9023V9.97009H11.6495V8.83657H11.5813C11.4308 9.186 11.1893 9.4772 10.8569 9.71015C10.5273 9.94026 10.1168 10.0553 9.62536 10.0553C9.2049 10.0553 8.83274 9.96299 8.50888 9.77833C8.18786 9.59083 7.93501 9.31384 7.75036 8.94737C7.56854 8.58089 7.47763 8.12776 7.47763 7.58799V3.42464H8.75178V7.43458C8.75178 7.8806 8.87536 8.23572 9.12251 8.49992C9.36967 8.76413 9.6907 8.89623 10.0856 8.89623C10.3242 8.89623 10.5614 8.83657 10.7972 8.71725C11.0359 8.59793 11.2333 8.41754 11.3896 8.17606C11.5487 7.93458 11.6268 7.62776 11.6239 7.2556ZM15.8885 1.24282V9.97009H14.6143V1.24282H15.8885ZM18.8768 1.24282V9.97009H17.6026V1.24282H18.8768ZM26.8221 3.42464V4.44737H23.2468V3.42464H26.8221ZM24.2056 1.85646H25.4798V8.04822C25.4798 8.29538 25.5167 8.48146 25.5906 8.60646C25.6644 8.72862 25.7596 8.81242 25.8761 8.85788C25.9954 8.90049 26.1246 8.9218 26.2638 8.9218C26.3661 8.9218 26.4556 8.91469 26.5323 8.90049C26.609 8.88629 26.6687 8.87492 26.7113 8.8664L26.9414 9.91896C26.8675 9.94737 26.7624 9.97577 26.6261 10.0042C26.4897 10.0354 26.3192 10.0525 26.1147 10.0553C25.7795 10.061 25.467 10.0013 25.1772 9.87634C24.8874 9.75134 24.6531 9.55816 24.4741 9.2968C24.2951 9.03543 24.2056 8.70731 24.2056 8.31242V1.85646ZM28.2315 9.97009V3.42464H29.5057V9.97009H28.2315ZM28.875 2.41469C28.6534 2.41469 28.4631 2.34083 28.304 2.1931C28.1477 2.04254 28.0696 1.86356 28.0696 1.65617C28.0696 1.44594 28.1477 1.26697 28.304 1.11924C28.4631 0.968672 28.6534 0.893388 28.875 0.893388C29.0966 0.893388 29.2855 0.968672 29.4418 1.11924C29.6009 1.26697 29.6804 1.44594 29.6804 1.65617C29.6804 1.86356 29.6009 2.04254 29.4418 2.1931C29.2855 2.34083 29.0966 2.41469 28.875 2.41469ZM31.2198 9.97009V3.42464H32.4428V4.48998H32.5238C32.6602 4.12918 32.8832 3.84793 33.1928 3.64623C33.5025 3.44168 33.8732 3.33941 34.305 3.33941C34.7425 3.33941 35.109 3.44168 35.4045 3.64623C35.7028 3.85077 35.9229 4.13202 36.065 4.48998H36.1332C36.2894 4.14055 36.538 3.86214 36.8789 3.65475C37.2198 3.44452 37.6261 3.33941 38.0977 3.33941C38.6914 3.33941 39.1758 3.52549 39.5508 3.89765C39.9286 4.26981 40.1175 4.83089 40.1175 5.58089V9.97009H38.8434V5.70021C38.8434 5.25702 38.7227 4.936 38.4812 4.73714C38.2397 4.53827 37.9513 4.43884 37.6161 4.43884C37.2013 4.43884 36.8789 4.56668 36.6488 4.82237C36.4187 5.07521 36.3036 5.40049 36.3036 5.79822V9.97009H35.0337V5.61924C35.0337 5.26413 34.9229 4.97862 34.7013 4.76271C34.4798 4.5468 34.1914 4.43884 33.8363 4.43884C33.5948 4.43884 33.3718 4.50276 33.1673 4.6306C32.9656 4.7556 32.8022 4.93032 32.6772 5.15475C32.555 5.37918 32.494 5.63913 32.494 5.93458V9.97009H31.2198ZM44.6463 10.1022C44.0014 10.1022 43.446 9.96441 42.9801 9.68884C42.517 9.41043 42.1591 9.01981 41.9062 8.51697C41.6562 8.01129 41.5312 7.41896 41.5312 6.73998C41.5312 6.06952 41.6562 5.47862 41.9062 4.96725C42.1591 4.45589 42.5114 4.05674 42.9631 3.76981C43.4176 3.48288 43.9489 3.33941 44.5568 3.33941C44.9261 3.33941 45.2841 3.40049 45.6307 3.52265C45.9773 3.64481 46.2884 3.83657 46.5639 4.09793C46.8395 4.3593 47.0568 4.69879 47.2159 5.1164C47.375 5.53117 47.4545 6.03543 47.4545 6.62918V7.08089H42.2514V6.12634H46.206C46.206 5.79112 46.1378 5.49424 46.0014 5.23572C45.8651 4.97435 45.6733 4.76839 45.4261 4.61782C45.1818 4.46725 44.8949 4.39197 44.5653 4.39197C44.2074 4.39197 43.8949 4.48004 43.6278 4.65617C43.3636 4.82947 43.1591 5.05674 43.0142 5.33799C42.8722 5.6164 42.8011 5.91896 42.8011 6.24566V6.9914C42.8011 7.4289 42.8778 7.80106 43.0312 8.10788C43.1875 8.4147 43.4048 8.64907 43.6832 8.811C43.9616 8.97009 44.2869 9.04964 44.6591 9.04964C44.9006 9.04964 45.1207 9.01555 45.3196 8.94737C45.5185 8.87634 45.6903 8.77123 45.8352 8.63202C45.9801 8.49282 46.0909 8.32095 46.1676 8.1164L47.3736 8.33373C47.277 8.68884 47.1037 8.99992 46.8537 9.26697C46.6065 9.53117 46.2955 9.73714 45.9205 9.88487C45.5483 10.0298 45.1236 10.1022 44.6463 10.1022Z" fill="#0F7137"/>
</svg>
