<svg width="44" height="58" viewBox="0 0 44 58" fill="none" xmlns="http://www.w3.org/2000/svg">
<path d="M16.7169 0.186916C16.4469 0.292572 16.0008 0.715191 15.8247 1.06738C15.7308 1.24347 15.6604 1.70131 15.6604 2.10045V2.80482H14.3808C13.6764 2.80482 12.9485 2.86352 12.7607 2.93396C11.6689 3.3331 10.9646 4.3427 10.9646 5.46969V6.09188H6.73836C2.80563 6.09188 2.47692 6.10362 2.06604 6.31493C1.50254 6.60842 1.0447 7.08974 0.821651 7.64149C0.657299 8.0289 0.63382 10.6351 0.63382 32.0009C0.63382 55.0338 0.645559 55.9378 0.85687 56.3956C1.12688 56.9708 1.6082 57.4404 2.18343 57.6752C2.57084 57.8396 4.74264 57.863 22.0232 57.863C40.6655 57.863 41.452 57.8513 41.8981 57.64C42.4734 57.37 42.943 56.8887 43.1777 56.3134C43.3421 55.926 43.3656 53.3199 43.3656 31.9775C43.3656 5.76317 43.4125 7.65323 42.6847 6.86669C41.9803 6.11536 41.8629 6.09188 37.2376 6.09188H33.0348V5.46969C33.0231 4.40139 32.4244 3.47397 31.45 3.02787C31.0861 2.86352 30.6869 2.80482 29.6773 2.80482H28.3625L28.3155 1.92436C28.2803 1.09085 28.2568 1.02042 27.8342 0.597797L27.3999 0.163437L22.1406 0.139957C19.2527 0.12822 16.8108 0.151695 16.7169 0.186916ZM26.4607 3.45049V4.91793H21.9997H17.5387V3.45049V1.98306H21.9997H26.4607V3.45049ZM15.6604 5.46969C15.6604 6.11536 15.7073 6.30319 15.9186 6.52624L16.1652 6.79625H21.988C27.7873 6.79625 27.799 6.79625 28.069 6.53798C28.3038 6.32667 28.339 6.17406 28.339 5.48143V4.68314H29.4543C30.4873 4.68314 30.6047 4.70662 30.863 4.97663C31.1565 5.25838 31.1565 5.28186 31.1565 7.44192V9.61373H21.9997H12.8429V7.44192C12.8429 5.28186 12.8429 5.25838 13.1364 4.97663C13.3946 4.70662 13.512 4.68314 14.5451 4.68314H15.6604V5.46969ZM10.9646 9.46111C10.9646 10.8229 10.9881 10.9755 11.2228 11.222L11.4694 11.492H21.988H32.4948L32.7648 11.2338C33.0231 10.999 33.0348 10.8933 33.0348 9.47285V7.9702H37.0262C40.8651 7.9702 41.0294 7.98194 41.2525 8.20499C41.4873 8.43978 41.4873 8.59239 41.4873 31.9775C41.4873 55.3625 41.4873 55.5151 41.2525 55.7499C41.0177 55.9847 40.8651 55.9847 21.9997 55.9847C3.13433 55.9847 2.98172 55.9847 2.74693 55.7499C2.51214 55.5151 2.51214 55.3625 2.51214 31.9775C2.51214 8.59239 2.51214 8.43978 2.74693 8.20499C2.96998 7.98194 3.13433 7.9702 6.97315 7.9702H10.9646V9.46111Z" fill="#16A6EC"/>
<path d="M20.6498 13.7226C19.0063 13.9809 17.3862 14.7087 16.1066 15.7653C11.7278 19.381 11.763 26.3543 16.1653 29.9231C17.1162 30.6979 18.478 31.3905 19.6168 31.7075C20.8964 32.0479 23.1034 32.0479 24.383 31.7075C26.2496 31.2027 28.1396 29.9348 29.2784 28.4322C32.2602 24.4994 31.638 18.8762 27.8931 15.7653C26.9657 15.0022 25.3104 14.157 24.2304 13.9104C23.2443 13.6756 21.542 13.5935 20.6498 13.7226ZM23.7021 15.777C27.2474 16.6809 29.701 20.2263 29.1844 23.7129C29.067 24.5699 28.5857 26.0256 28.304 26.3778C28.2218 26.4834 28.0927 26.4012 27.764 26.0256C27.13 25.286 26.637 24.8634 25.8739 24.3938L25.1813 23.9712L25.5804 23.4194C26.7778 21.7407 26.5078 19.2754 24.9817 17.8314C24.0191 16.9157 23.479 16.7162 21.9999 16.7162C20.8729 16.7162 20.7085 16.7396 20.0863 17.0566C18.2432 17.9958 17.2923 20.1206 17.8324 22.1163C17.938 22.5272 18.208 23.1142 18.4193 23.4194L18.8185 23.9712L18.1258 24.3938C17.3628 24.8634 16.8697 25.286 16.2358 26.0256C15.7427 26.6008 15.7192 26.5891 15.2731 25.4621C14.4749 23.4312 14.5688 21.6115 15.5549 19.5923C16.4354 17.7962 18.2785 16.2935 20.2389 15.7887C21.0959 15.5657 22.8334 15.554 23.7021 15.777ZM22.716 18.6767C23.3382 18.8762 23.7373 19.2049 24.066 19.7802C24.9817 21.3533 23.8195 23.349 21.9999 23.349C20.1802 23.349 19.018 21.3533 19.9337 19.7802C20.5324 18.7588 21.6477 18.3127 22.716 18.6767ZM23.7491 25.5677C24.97 25.9434 26.1674 26.8826 26.6957 27.8687C26.86 28.1739 26.8483 28.1974 26.4609 28.5261C25.8974 28.9957 24.5591 29.6413 23.7021 29.8644C22.8099 30.0874 21.1898 30.0874 20.2976 29.8644C19.4407 29.6413 18.1024 28.9957 17.5389 28.5261C17.1515 28.1974 17.1397 28.1739 17.3041 27.8687C17.8206 26.906 19.0298 25.9551 20.2155 25.5677C21.1429 25.2743 22.7982 25.2743 23.7491 25.5677Z" fill="#16A6EC"/>
<path d="M9.62646 34.9594L8.32337 36.239L7.86553 35.8398C7.26682 35.3233 6.64463 35.2881 6.2807 35.7459C5.82286 36.3329 5.94026 36.6733 6.94985 37.6947C7.78336 38.5282 7.91249 38.6104 8.32337 38.6104C8.75773 38.6104 8.87513 38.5164 10.5187 36.8729C12.1974 35.1942 12.2561 35.1237 12.2561 34.6541C12.2561 34.2667 12.1974 34.1141 11.9509 33.9263C11.3287 33.4332 11.0469 33.5624 9.62646 34.9594Z" fill="#16A6EC"/>
<path d="M14.874 35.9924C14.2166 36.1215 14.0171 37.2368 14.5571 37.6594C14.874 37.9059 14.921 37.9059 26.0148 37.9059C35.559 37.9059 37.2026 37.8825 37.4843 37.7299C38.0478 37.4481 38.13 36.8259 37.6839 36.2976L37.4021 35.9689L26.2614 35.9572C20.1451 35.9454 15.0149 35.9689 14.874 35.9924Z" fill="#16A6EC"/>
<path d="M9.62647 42.3552L8.32338 43.6466L7.88902 43.2357C7.079 42.4961 6.03418 42.8248 6.03418 43.8109C6.03418 44.1044 6.21028 44.3392 6.94986 45.0905C7.78337 45.9123 7.9125 46.0062 8.32338 46.0062C8.74601 46.0062 8.87514 45.9123 10.5187 44.2688C12.1974 42.59 12.2561 42.5079 12.2561 42.0383C12.2561 41.4278 11.9157 41.0756 11.3404 41.0756C10.9765 41.0756 10.7769 41.2283 9.62647 42.3552Z" fill="#16A6EC"/>
<path d="M14.557 43.5527C14.1814 43.8579 14.1344 44.5388 14.4749 44.9614L14.6979 45.2432H26.05H37.4021L37.6838 44.9145C38.1299 44.3862 38.0478 43.764 37.4843 43.4822C37.2025 43.3296 35.559 43.3061 26.0148 43.3061C14.921 43.3061 14.874 43.3061 14.557 43.5527Z" fill="#16A6EC"/>
<path d="M9.61473 49.7629L8.33512 51.0542L7.9125 50.6551C7.43118 50.1737 6.98508 50.0329 6.59768 50.2442C6.19854 50.4555 6.04592 50.7138 6.03418 51.1364C6.03418 51.4416 6.17506 51.6647 6.76203 52.2868C7.51336 53.0969 7.95946 53.4021 8.39382 53.4021C8.58165 53.4021 9.21559 52.8503 10.46 51.6177C12.1505 49.9389 12.2561 49.8098 12.2561 49.3872C12.2561 48.8002 11.9274 48.4715 11.3404 48.4715C10.9413 48.4715 10.8004 48.5772 9.61473 49.7629Z" fill="#16A6EC"/>
<path d="M14.557 50.9485C14.1696 51.2538 14.1227 51.9816 14.4866 52.3455C14.7214 52.5803 14.874 52.5803 26.097 52.5803H37.4843L37.7191 52.2751C38.0478 51.8525 38.036 51.3477 37.6721 50.9955L37.3904 50.702H26.1322C14.921 50.702 14.874 50.702 14.557 50.9485Z" fill="#16A6EC"/>
</svg>
