<svg width="42" height="56" viewBox="0 0 42 56" fill="none" xmlns="http://www.w3.org/2000/svg">
<path d="M16.3963 0.722164C14.4861 1.23727 12.8335 2.72892 12.1359 4.5747C11.6638 5.841 11.8677 6.55999 12.6832 6.55999C13.1554 6.55999 13.4344 6.29171 13.5954 5.68003C13.9388 4.42447 14.9261 3.24402 16.0958 2.69672C17.1045 2.21381 18.006 2.13869 22.2126 2.18162L25.9579 2.21381L26.2154 2.51429C26.3549 2.67526 26.473 2.94354 26.473 3.10451C26.4837 3.55523 26.8378 4.25276 27.2027 4.51031C27.3851 4.62836 27.7822 4.78933 28.1041 4.84298C29.1021 5.03615 29.1021 5.01469 29.1343 7.82629C29.1773 10.5091 29.1236 10.8525 28.6729 10.8525C28.2758 10.8525 28.0075 10.6808 27.8144 10.3267C27.7285 10.155 27.4924 9.90816 27.2885 9.77938C26.9344 9.56476 26.8271 9.55403 25.3247 9.62915C23.9833 9.69353 23.6292 9.67207 23.0926 9.52184C21.8478 9.15697 20.7424 8.4487 19.7337 7.39704C19.4762 7.12875 19.0147 6.77462 18.7142 6.60292C17.4587 5.92685 15.806 6.42049 15.1192 7.68678C14.9797 7.9336 14.9261 8.38432 14.9046 9.63988L14.8617 11.271L14.2607 11.0457C13.9173 10.9276 13.5847 10.7559 13.5203 10.6594C13.4344 10.5628 13.3808 10.1872 13.3808 9.76865C13.3808 9.11404 13.3486 9.01746 13.1018 8.8243C12.7262 8.52382 12.3828 8.54528 12.0179 8.85649C11.7389 9.09258 11.7174 9.17843 11.696 9.92963C11.6852 10.5413 11.6208 10.8847 11.4277 11.2603C11.213 11.711 11.1809 11.9149 11.1809 13.1597C11.1809 14.0719 11.2345 14.7051 11.3311 14.9733C11.5994 15.746 12.651 16.6474 13.2627 16.6474C13.413 16.6474 13.4988 16.7333 13.5417 16.9372C13.9603 18.9332 14.8295 20.4678 16.1173 21.4765C16.7182 21.9594 16.7289 21.9594 16.6753 22.4531C16.6538 22.7321 16.525 23.1291 16.3855 23.3438C15.9885 23.9984 15.5056 24.2345 13.9066 24.5779C12.2218 24.9427 11.0735 25.3612 9.92529 26.0373L9.09898 26.5202H7.52148C6.12641 26.5202 5.87959 26.5524 5.46107 26.7456C4.7528 27.0997 4.43086 27.6577 4.3772 28.6558C4.34501 29.4284 4.32355 29.4928 3.93722 29.9113C3.71186 30.1581 3.47577 30.5445 3.41139 30.7698C3.33627 31.0274 3.29334 32.401 3.29334 34.2146V37.2515L2.60654 37.6808C1.80169 38.1959 1.31878 38.711 0.996842 39.3871C0.792947 39.827 0.771484 40.0739 0.771484 41.7587C0.771484 43.6045 0.771484 43.6474 1.08269 44.3127C1.44756 45.1069 2.24167 45.8795 2.87482 46.0619L3.29334 46.1907V48.5087C3.29334 50.7086 3.30407 50.8588 3.54016 51.3095C3.96941 52.1788 4.19477 52.2324 7.13515 52.3076C11.9964 52.4256 15.0441 53.1017 18.5103 54.8187L19.7444 55.4411H21H22.2556L23.4897 54.8187C26.9559 53.1017 30.0036 52.4256 34.8648 52.3076C37.1828 52.2539 37.4404 52.2217 37.8052 52.0178C38.5886 51.5778 38.653 51.3632 38.6852 48.6053L38.7174 46.18L38.9857 46.1156C39.7369 45.9224 40.4988 45.1927 40.9495 44.2269C41.2178 43.6581 41.2285 43.5508 41.2285 41.7587C41.2285 40.0739 41.2071 39.827 41.0032 39.3871C40.6919 38.711 40.1983 38.1959 39.4149 37.6915L38.7281 37.2623L38.6852 36.5433C38.653 35.953 38.5993 35.7921 38.3955 35.6311C38.052 35.3521 37.5155 35.3736 37.2257 35.674C37.0111 35.8994 36.9896 36.0496 36.9682 37.5735L36.936 39.2368L36.1311 39.3012C35.1761 39.3763 34.897 39.4836 34.3712 39.9451C33.6093 40.6104 33.5127 40.9431 33.4698 42.9713C33.4376 44.6132 33.4483 44.8064 33.6522 45.2249C34.06 46.0619 34.7146 46.3731 36.0882 46.3731H36.9896V48.4658V50.5584H35.498C31.7313 50.5584 27.6963 51.2022 25.0564 52.2217C24.5091 52.4363 23.9726 52.6402 23.876 52.6724C23.6936 52.7261 23.6828 52.2217 23.6828 43.0572V33.3775L24.4126 33.0449C26.0544 32.2937 28.4583 31.6283 30.6582 31.2957C31.2806 31.2098 32.8152 31.0703 34.0707 31.0059C36.9789 30.8449 36.9145 30.8235 36.9896 32.0576C37.0218 32.5405 37.1077 33.0019 37.1828 33.0985C37.5262 33.5063 38.3633 33.3883 38.5886 32.8946C38.7388 32.562 38.7388 31.3171 38.5886 30.7698C38.5242 30.5445 38.2881 30.1581 38.0735 29.9113C37.6872 29.5035 37.655 29.4177 37.6121 28.645C37.5477 27.6256 37.2472 27.089 36.5389 26.7456C36.1204 26.5524 35.8736 26.5202 34.4785 26.5202H32.901L32.0747 26.0373C30.9265 25.3612 29.7782 24.9427 28.0827 24.5671C27.1598 24.374 26.4944 24.1593 26.2476 23.9984C25.7862 23.6979 25.4106 23.1399 25.3354 22.6355C25.2818 22.335 25.314 22.2599 25.5823 22.0989C27.3207 21.0795 28.5226 19.2659 28.9948 16.9479C29.027 16.7547 29.1451 16.6367 29.3704 16.5508C29.907 16.3684 30.3255 16.0143 30.5831 15.5421L30.8191 15.0914L30.7762 10.0477C30.7548 6.33464 30.7118 4.9181 30.6153 4.68201C30.2826 3.89863 29.5421 3.32987 28.6514 3.17963C28.2436 3.11525 28.19 3.07232 28.19 2.8255C28.19 2.41771 27.7393 1.51628 27.3744 1.17288C26.7091 0.550461 26.6876 0.550461 21.6224 0.561192C17.9201 0.561192 16.8577 0.593388 16.3963 0.722164ZM17.7913 8.06238C17.9094 8.12677 18.3172 8.49163 18.7142 8.87796C19.9805 10.1121 21.5688 11.0028 23.0497 11.2925C23.436 11.3676 24.2087 11.3998 25.0242 11.3676L26.3549 11.314L26.6769 11.711C27.1168 12.2691 27.7822 12.5695 28.5441 12.5695H29.1558V13.471C29.1558 13.9753 29.1129 14.5012 29.0485 14.6514C28.9626 14.8982 28.8875 14.9304 28.469 14.9304C27.7071 14.9304 27.4388 15.2309 27.3315 16.2182C27.2778 16.6582 27.1598 17.2591 27.0632 17.5596C26.312 19.7917 24.155 21.4229 21.6546 21.6482C19.7122 21.8199 17.3621 20.6931 16.2353 19.0298C15.6451 18.1605 15.3553 17.3879 15.2158 16.2718C15.1622 15.7889 15.0441 15.3704 14.9475 15.2738C14.8617 15.1772 14.4861 15.0699 14.1212 15.027C13.6169 14.9733 13.3915 14.8875 13.1876 14.6729C12.9301 14.426 12.9086 14.2973 12.8657 13.3851L12.8227 12.3764L13.7027 12.6876C14.7758 13.0632 15.3661 13.0846 15.8597 12.752C16.5036 12.3227 16.6002 11.9793 16.6002 10.1443C16.6002 8.60967 16.6109 8.52382 16.847 8.3092C17.2226 7.95506 17.4694 7.90141 17.7913 8.06238ZM19.444 23.1721C20.2595 23.3867 22.3307 23.3867 23.1033 23.1721L23.6506 23.0218L23.7687 23.4618C23.8331 23.7086 24.0584 24.1593 24.2623 24.4705C24.4769 24.7818 24.6486 25.05 24.6486 25.0715C24.6486 25.1466 23.3072 25.6832 22.7063 25.8334C21.3005 26.1876 19.1542 25.8549 17.9952 25.0822L17.5767 24.8139L17.9523 24.1057C18.1562 23.7086 18.3172 23.3116 18.3172 23.2043C18.3172 22.9467 18.4352 22.8501 18.6284 22.9252C18.725 22.9682 19.0898 23.0755 19.444 23.1721ZM16.568 26.2412C17.2762 26.7349 18.0167 27.0997 18.9611 27.4002C19.6479 27.6041 19.9913 27.647 21.2683 27.647C22.5453 27.647 22.8887 27.6041 23.5755 27.4002C24.434 27.1212 25.314 26.7027 25.9793 26.2519L26.3978 25.9729L27.4817 26.209C28.7802 26.488 29.628 26.7349 29.5529 26.7992C29.5314 26.8314 28.909 26.9709 28.1792 27.1212C25.7325 27.6148 23.8116 28.3016 22.1912 29.2567C21.6439 29.5786 21.0966 29.8469 20.9893 29.8469C20.882 29.8469 20.4312 29.6216 19.9805 29.3533C18.3601 28.366 16.4499 27.6685 13.9817 27.1534C13.1661 26.9924 12.4686 26.8314 12.4471 26.7992C12.372 26.7241 13.3164 26.4558 14.5934 26.1983C15.1944 26.0695 15.7095 25.9407 15.7309 25.9193C15.849 25.812 16.1065 25.9085 16.568 26.2412ZM12.0394 28.5484C15.1192 29.0099 17.126 29.6967 19.444 31.0703C20.1415 31.4781 20.2381 31.5103 21.0107 31.5103C21.7619 31.5103 21.8692 31.4781 22.4595 31.1132C25.3998 29.2996 28.8875 28.3982 33.4698 28.2694C35.8199 28.205 35.9165 28.2265 35.9165 28.8275V29.1816L34.3927 29.2567C29.3704 29.4928 25.7862 30.3298 22.6097 32.0147C21.7834 32.4546 21.2576 32.6693 21 32.6693C20.7424 32.6693 20.2166 32.4546 19.3903 32.0147C16.2138 30.3298 12.6296 29.4928 7.61806 29.2567L6.08348 29.1816V28.8382C6.08348 28.2158 6.13714 28.205 8.49803 28.2694C9.79651 28.3124 11.1916 28.4197 12.0394 28.5484ZM10.4726 31.1991C13.3057 31.5317 16.2353 32.3151 17.9952 33.2273L18.3172 33.399V43.0572C18.3172 52.2217 18.3064 52.7261 18.1347 52.6724C18.0274 52.6402 17.5016 52.4363 16.965 52.2324C14.3144 51.2022 10.2687 50.5584 6.502 50.5584H5.01035V48.4658V46.3731L5.95471 46.3624C7.06003 46.3517 7.46782 46.2229 7.97219 45.74C8.49803 45.2142 8.57314 44.8386 8.53022 42.8855C8.48729 40.9538 8.37998 40.5997 7.62879 39.9451C7.10296 39.4836 6.82394 39.3763 5.86886 39.3012L5.06401 39.2368L5.03181 35.2662L5.01035 31.2957L5.24644 31.0918C5.4718 30.9093 5.63277 30.8986 7.31758 30.963C8.32632 31.0059 9.74286 31.1132 10.4726 31.1991ZM21.4829 34.3541L21.9658 34.279V43.9693C21.9658 52.6939 21.9444 53.649 21.7941 53.7134C21.5795 53.7992 20.4205 53.7992 20.2059 53.7134C20.0556 53.649 20.0342 52.6939 20.0342 43.9693V34.279L20.5171 34.3541C20.7854 34.397 21.2146 34.397 21.4829 34.3541ZM3.91576 40.5031C4.25916 40.8143 4.89231 40.9968 5.57911 41.0075C6.12641 41.0075 6.24445 41.0504 6.52347 41.3187L6.83467 41.6299V43.0142C6.83467 43.9479 6.79175 44.4415 6.7059 44.5274C6.62005 44.6132 6.14787 44.6561 5.27863 44.6561C2.93921 44.6454 2.44557 44.1625 2.43484 41.7801C2.43484 40.4924 2.55288 39.9987 3.0036 39.5266L3.22895 39.2798L3.46504 39.7949C3.58309 40.0739 3.78698 40.3958 3.91576 40.5031ZM39.3613 40.0953C39.5222 40.4387 39.5652 40.7821 39.5544 41.7587C39.5544 44.1625 39.0715 44.6454 36.7214 44.6561C35.8521 44.6561 35.38 44.6132 35.2941 44.5274C35.2083 44.4415 35.1653 43.9479 35.1653 43.0142V41.6299L35.4765 41.3187C35.7448 41.0504 35.8736 41.0075 36.3672 41.0075C37.5369 41.0075 38.2345 40.6104 38.5564 39.7627C38.7281 39.3012 38.7388 39.2905 38.9535 39.4729C39.0715 39.5802 39.254 39.8592 39.3613 40.0953Z" fill="#16A6EC"/>
<path d="M32.9117 35.6097C30.2396 35.8673 28.8016 36.1141 26.9237 36.6292C26.0008 36.876 25.6681 37.0155 25.5071 37.2302C25.2496 37.5521 25.2388 37.874 25.4642 38.196C25.7861 38.6574 26.0115 38.6574 27.7285 38.2174C29.4884 37.756 31.6776 37.4126 33.4805 37.2946C34.8004 37.2087 35.0258 37.1014 35.1224 36.479C35.176 36.157 35.1438 36.039 34.9185 35.8136C34.6717 35.5668 34.5536 35.5346 33.9634 35.5561C33.5878 35.5561 33.1156 35.5883 32.9117 35.6097Z" fill="#16A6EC"/>
</svg>
