<svg width="60" height="60" viewBox="0 0 60 60" fill="none" xmlns="http://www.w3.org/2000/svg">
<path d="M21.8301 5.12376C20.4987 5.41626 19.4598 5.93065 18.189 6.89893C17.7452 7.23177 17.2207 7.56461 17.0089 7.63522C15.6069 8.12944 14.4873 9.18849 13.9628 10.5098C13.3779 12.0126 13.4787 13.3037 14.3159 15.0385C14.6185 15.6739 14.8706 16.1984 14.8706 16.2286C14.8706 16.2488 14.679 16.269 14.447 16.269C13.6199 16.2791 12.7424 16.8943 12.4096 17.7012C12.2079 18.1854 12.2079 19.194 12.4096 19.6781C12.7929 20.606 13.6098 21.1003 14.7496 21.1104H15.4758V21.6954C15.4758 22.5527 15.8086 23.7529 16.3432 24.8221C16.8878 25.9013 17.9469 27.1116 18.9253 27.7773L19.5103 28.1808V29.1188V30.0568L14.4974 30.894C11.7338 31.3478 9.20217 31.8118 8.86933 31.9127C7.10424 32.4573 5.6014 34.0106 5.13744 35.7858C5.00632 36.3002 4.98615 37.6416 4.98615 45.4887C4.98615 54.4654 4.98615 54.5965 5.18787 54.7982C5.38959 54.9999 5.52071 54.9999 29.667 54.9999C53.7226 54.9999 53.9546 54.9999 54.2874 54.7982C54.469 54.6873 54.7009 54.4553 54.8119 54.2737C55.0035 53.951 55.0136 53.7493 55.0136 45.3172C55.0136 36.8852 55.0035 36.6834 54.8119 36.3607C54.7009 36.1791 54.469 35.9471 54.2874 35.8362C53.9747 35.6446 53.773 35.6345 51.2616 35.6345H48.5585V34.0913C48.5585 32.3665 48.4576 32.0135 47.8423 31.4285C47.1666 30.783 47.2271 30.7931 42.1033 30.7931C37.1409 30.7931 37.03 30.8032 36.4954 31.3075C36.2836 31.5092 36.2836 31.4991 31.9364 30.783L27.5792 30.0568V29.1188V28.1808L28.1642 27.7773C28.84 27.3134 29.8385 26.3047 30.2924 25.6189C31.0488 24.4993 31.6137 22.825 31.6137 21.6954V21.1104H32.35C33.8932 21.1003 34.8413 20.1723 34.8413 18.6695C34.8312 17.3079 33.8528 16.269 32.5719 16.269C32.3197 16.269 32.118 16.2488 32.118 16.2286C32.118 16.2085 32.2491 15.9059 32.4105 15.5529C32.8946 14.4636 33.056 13.5962 32.9955 12.3656C32.945 11.1049 32.7131 10.2778 32.1482 9.31961C31.6843 8.5228 30.837 7.6453 30.1007 7.17125C29.3947 6.71737 26.7219 5.50703 25.8645 5.25488C24.987 4.98255 22.758 4.91195 21.8301 5.12376ZM25.1081 6.83841C25.4409 6.92918 26.4697 7.34272 27.3976 7.75625C28.8198 8.40177 29.1829 8.61358 29.7276 9.1078C30.4134 9.74323 30.9379 10.5905 31.1699 11.468C31.3615 12.174 31.3413 13.3743 31.1194 14.05L30.948 14.6048L30.3731 13.4852C30.0604 12.8699 29.7376 12.3354 29.6469 12.295C29.1728 12.1135 28.8299 12.2345 27.8818 12.9406C26.2176 14.161 25.1585 14.5543 23.5447 14.5543C21.941 14.5543 20.8618 14.1509 19.2077 12.9406C18.2394 12.2244 17.846 12.0933 17.4123 12.3253C17.3215 12.3757 16.9887 12.9204 16.6861 13.5356C16.3835 14.1509 16.1112 14.6552 16.0709 14.6552C15.9599 14.6552 15.4758 13.4751 15.3648 12.9204C15.153 11.8512 15.6977 10.5098 16.6357 9.79366C17.3417 9.25909 17.9469 9.07754 18.8849 9.12797C20.1053 9.18849 21.003 9.6928 21.8301 10.8023L22.0822 11.1351L22.7681 10.6712C23.1413 10.419 23.4439 10.187 23.4439 10.1568C23.4439 9.99538 22.7681 9.15823 22.284 8.73461C21.7595 8.26056 21.2451 7.95797 20.5693 7.69574L20.2667 7.5747L20.7609 7.32254C21.9208 6.72746 23.8473 6.51565 25.1081 6.83841ZM19.9641 15.4722C21.1442 16.0471 22.1226 16.269 23.5447 16.269C25.3703 16.269 27.0446 15.7445 28.3558 14.746L28.8904 14.3526L29.4552 15.4823L30.0301 16.622L29.9696 19.3453C29.9293 21.4432 29.8788 22.2098 29.7477 22.6737C28.2852 27.969 21.4972 29.2096 18.3302 24.7616C17.3215 23.3596 17.0896 22.2198 17.0896 18.6594V16.5716L17.6443 15.4621L18.199 14.3425L18.6832 14.7056C18.9353 14.9074 19.5203 15.2503 19.9641 15.4722ZM15.4758 18.6897V19.4966H15.1228C14.5781 19.4966 14.0839 19.2545 14.0032 18.9519C13.8418 18.3064 14.2654 17.8929 15.1026 17.8828H15.4758V18.6897ZM32.6727 18.024C33.0459 18.1854 33.1972 18.5081 33.0863 18.9519C33.0056 19.2545 32.5113 19.4966 31.9667 19.4966H31.6137V18.6897V17.8828H31.9667C32.1684 17.8828 32.4811 17.9433 32.6727 18.024ZM21.9309 29.0684C22.8286 29.2701 24.8862 29.1894 25.7939 28.9171C25.9452 28.8666 25.9654 28.9473 25.9654 29.6029V30.3392L24.7551 31.5496L23.5447 32.7599L22.3344 31.5496L21.124 30.3392V29.6029C21.124 28.9473 21.1442 28.8666 21.3056 28.9171C21.3964 28.9473 21.6788 29.0179 21.9309 29.0684ZM20.4483 32.185L20.9223 32.6691L20.6197 33.5668C20.1759 34.878 20.1961 34.9789 21.0434 36.2598L21.7595 37.3592L21.0434 39.1747C20.6399 40.1732 20.3171 41.1314 20.3171 41.313C20.3171 41.6257 22.5159 51.3387 22.7479 52.0548C22.8689 52.428 23.1009 52.5793 23.5447 52.5793C23.9885 52.5793 24.2205 52.428 24.3415 52.0548C24.5735 51.3387 26.7723 41.6257 26.7723 41.313C26.7723 41.1314 26.4495 40.1732 26.0461 39.1747L25.33 37.3592L26.0461 36.2598C26.8933 34.9789 26.9135 34.878 26.4697 33.5668L26.1671 32.659L26.6412 32.1951L27.1253 31.721L31.3918 32.4271L35.6481 33.1432V34.3939V35.6345H32.9551C30.4336 35.6345 30.2319 35.6446 29.9192 35.8362C29.7376 35.9471 29.5057 36.1791 29.3947 36.3607C29.2031 36.6834 29.193 36.8852 29.193 45.0348V53.3861H21.9309H14.6689V46.5275V39.6689H13.862H13.0551V46.5275V53.3861H9.82751H6.59993V45.4887C6.61002 41.1516 6.65037 37.2987 6.69071 36.9255C6.81174 36.0278 7.25554 35.0999 7.87079 34.4947C8.76846 33.6071 8.87941 33.5769 14.6487 32.5985C17.5233 32.1144 19.8834 31.721 19.9137 31.7109C19.944 31.7009 20.186 31.9227 20.4483 32.185ZM46.3798 32.5481C46.8337 32.7397 46.9447 33.1028 46.9447 34.4947V35.6345L44.413 35.6143L41.8814 35.584L41.6797 35.0797C41.3166 34.1417 40.3382 32.9818 39.5313 32.5279C39.2086 32.3464 45.9361 32.3565 46.3798 32.5481ZM38.2504 33.8089C38.4824 33.9198 38.8354 34.172 39.0371 34.3535C39.4305 34.6864 39.9852 35.3924 39.9852 35.5538C39.9852 35.5941 39.3699 35.6345 38.6236 35.6345H37.2619V34.5351V33.4256L37.5443 33.5063C37.6956 33.5567 38.0083 33.6878 38.2504 33.8089ZM22.7479 34.4746C23.0606 34.757 23.222 34.8276 23.5447 34.8276C23.8675 34.8276 24.0289 34.757 24.3415 34.4746C24.5533 34.2829 24.7551 34.1215 24.7853 34.1215C24.8156 34.1215 24.866 34.2627 24.9064 34.4342C24.9669 34.6964 24.8963 34.8679 24.4121 35.5941C23.9078 36.3405 23.807 36.4414 23.5447 36.4414C23.2825 36.4414 23.1816 36.3405 22.6773 35.5941C22.1932 34.8679 22.1226 34.6964 22.1831 34.4342C22.2234 34.2627 22.2739 34.1215 22.3041 34.1215C22.3344 34.1215 22.5361 34.2829 22.7479 34.4746ZM53.3998 38.3275C53.3897 40.5263 53.0972 41.4945 52.1491 42.4527C51.08 43.5219 50.3135 43.7034 46.8236 43.7034H44.524V42.2913C44.524 40.3548 44.6854 40.4758 42.1033 40.4758C39.5212 40.4758 39.6826 40.3548 39.6826 42.2913V43.7034H37.3931C33.8932 43.7034 33.1266 43.5219 32.0575 42.4527C31.1094 41.4945 30.8169 40.5263 30.8068 38.3275V37.2483H42.1033H53.3998V38.3275ZM24.4121 39.7194L25.0577 41.3332L24.3314 44.5305C23.928 46.2956 23.575 47.7379 23.5447 47.7379C23.5145 47.7379 23.1614 46.2956 22.758 44.5305L22.0318 41.3332L22.5966 39.9211C22.9093 39.1445 23.2018 38.4082 23.2522 38.277C23.3127 38.1157 23.4136 38.0551 23.5548 38.0753C23.7263 38.0955 23.8877 38.4183 24.4121 39.7194ZM42.9102 44.0564C42.9102 46.2552 42.8295 46.6688 42.3655 46.7898C41.9218 46.9007 41.599 46.7494 41.4376 46.3763C41.3368 46.114 41.2964 45.5391 41.2964 44.0564V42.0896H42.1033H42.9102V44.0564ZM32.1886 44.7019C33.3485 45.2869 33.6007 45.3172 36.7778 45.3172H39.6826V46.0434C39.6927 47.5967 40.6206 48.5448 42.1235 48.5448C42.8699 48.5448 43.4246 48.3128 43.8886 47.8287C44.3525 47.3344 44.524 46.8503 44.524 46.0232V45.3172H47.4288C49.8091 45.3172 50.4345 45.2869 50.8884 45.1558C51.6549 44.9238 52.5324 44.47 52.9964 44.0463L53.3998 43.6832V46.9209V50.1586H42.1033H30.8068V46.9209V43.6832L31.2102 44.0463C31.4321 44.238 31.8658 44.5406 32.1886 44.7019ZM53.3998 52.5793V53.3861H42.1033H30.8068V52.5793V51.7724H42.1033H53.3998V52.5793Z" fill="#16A6EC"/>
</svg>
