<svg width="50" height="50" viewBox="0 0 50 50" fill="none" xmlns="http://www.w3.org/2000/svg">
<path d="M2.67649 0.448425C1.8153 0.632275 0.99282 1.2322 0.567063 2.00631L0.276775 2.52882L0.247746 24.852L0.228394 47.1752L0.431595 47.7171C0.702531 48.4331 1.38955 49.1298 2.11527 49.4007L2.65714 49.6039H24.9997H47.3422L47.8841 49.4007C48.6001 49.1298 49.2968 48.4331 49.5678 47.7171C49.771 47.1849 49.771 47.0978 49.771 35.9701C49.771 23.3812 49.8193 24.2714 49.0356 23.3909C48.7937 23.12 48.3776 22.8006 48.097 22.6652C47.7196 22.491 45.2618 21.9685 38.382 20.6041L29.1702 18.785L29.1411 12.447L29.1121 6.10905L28.8412 5.5575C28.5412 4.9479 28.009 4.43505 27.3607 4.12541C27.0317 3.98027 24.1675 3.50613 15.4879 2.19016C9.19831 1.24188 3.83765 0.438747 3.56671 0.409718C3.30545 0.380692 2.89905 0.400043 2.67649 0.448425ZM14.8396 4.27056C21.0421 5.20916 26.2382 6.02197 26.3931 6.08002C26.5382 6.13808 26.7511 6.32193 26.8478 6.48642C27.022 6.77671 27.0317 7.396 27.0317 27.1259V47.4752H23.9837H20.9453L20.9163 42.4628L20.8873 37.4602L20.6163 36.9183C20.3067 36.2797 19.6584 35.6411 19.0197 35.3508C18.5746 35.1476 18.4585 35.1379 14.6848 35.1379H10.8046L10.1369 35.4766C9.66277 35.7185 9.37248 35.9507 9.11122 36.2991C8.45323 37.1602 8.45323 37.1699 8.45323 42.608V47.4752H5.79226C2.88937 47.4752 2.69585 47.4461 2.47329 46.943C2.30879 46.5946 2.30879 3.4384 2.46361 3.12875C2.62811 2.79976 2.95711 2.57721 3.27642 2.57721C3.43124 2.57721 8.62741 3.34163 14.8396 4.27056ZM38.3046 22.8006C47.1003 24.5327 47.11 24.5327 47.3809 24.8327L47.6422 25.1229V35.912C47.6422 44.0594 47.6131 46.7494 47.5261 46.943C47.2745 47.4945 47.6422 47.4752 38.0143 47.4752H29.1605V34.2283C29.1605 21.6588 29.1702 20.9815 29.3347 21.0202C29.4217 21.0396 33.4664 21.8427 38.3046 22.8006ZM18.294 37.4699C18.7778 37.8376 18.7972 37.9731 18.7972 42.8983L18.8069 47.4752H14.6944H10.582V42.7822C10.582 38.9213 10.611 38.0311 10.7175 37.8182C10.8433 37.5763 11.0658 37.4118 11.4529 37.2764C11.5303 37.2473 13.0398 37.2377 14.8106 37.2473C17.8973 37.2667 18.0328 37.2764 18.294 37.4699Z" fill="#16A6EC"/>
<path d="M6.96314 10.4633C6.54706 10.6859 6.43094 10.8891 6.42126 11.4116C6.42126 11.8083 6.46965 11.9244 6.70188 12.1663L6.98249 12.447H9.51768H12.0529L12.3335 12.1663C12.5657 11.9244 12.6141 11.7986 12.6141 11.4116C12.6141 10.8891 12.4109 10.5794 11.9658 10.4053C11.84 10.3569 10.7175 10.3182 9.48865 10.3182C7.66951 10.3182 7.18569 10.3472 6.96314 10.4633Z" fill="#16A6EC"/>
<path d="M17.2006 10.502C16.6103 10.8601 16.5329 11.6922 17.0361 12.1954L17.2877 12.447H19.7938C21.3324 12.447 22.3774 12.4083 22.4935 12.3502C22.7451 12.2051 22.9677 11.7503 22.9677 11.3439C22.9677 11.102 22.8806 10.9084 22.687 10.6859L22.4064 10.3666L19.9487 10.3375C17.6844 10.3182 17.4812 10.3279 17.2006 10.502Z" fill="#16A6EC"/>
<path d="M6.96314 16.6563C6.54706 16.8788 6.43094 17.082 6.42126 17.6045C6.42126 18.0013 6.46965 18.1174 6.70188 18.3593L6.98249 18.6399H9.51768H12.0529L12.3335 18.3593C12.5657 18.1174 12.6141 17.9916 12.6141 17.6045C12.6141 17.082 12.4109 16.7724 11.9658 16.5982C11.84 16.5498 10.7175 16.5111 9.48865 16.5111C7.66951 16.5111 7.18569 16.5401 6.96314 16.6563Z" fill="#16A6EC"/>
<path d="M17.2006 16.695C16.6103 17.053 16.5329 17.8851 17.0361 18.3883L17.2877 18.6399H19.7938C21.3324 18.6399 22.3774 18.6012 22.4935 18.5431C22.7451 18.398 22.9677 17.9432 22.9677 17.5368C22.9677 17.2949 22.8806 17.1014 22.687 16.8788L22.4064 16.5595L19.9487 16.5305C17.6844 16.5111 17.4812 16.5208 17.2006 16.695Z" fill="#16A6EC"/>
<path d="M6.96314 22.849C6.54706 23.0716 6.43094 23.2748 6.42126 23.7973C6.42126 24.194 6.46965 24.3101 6.70188 24.552L6.98249 24.8326H9.51768H12.0529L12.3335 24.552C12.5657 24.3101 12.6141 24.1843 12.6141 23.7973C12.6141 23.2748 12.4109 22.9651 11.9658 22.7909C11.84 22.7426 10.7175 22.7039 9.48865 22.7039C7.66951 22.7039 7.18569 22.7329 6.96314 22.849Z" fill="#16A6EC"/>
<path d="M17.2006 22.8877C16.6103 23.2457 16.5329 24.0779 17.0361 24.5811L17.2877 24.8326H19.7938C21.3324 24.8326 22.3774 24.7939 22.4935 24.7359C22.7451 24.5907 22.9677 24.1359 22.9677 23.7295C22.9677 23.4876 22.8806 23.2941 22.687 23.0716L22.4064 22.7522L19.9487 22.7232C17.6844 22.7039 17.4812 22.7135 17.2006 22.8877Z" fill="#16A6EC"/>
<path d="M6.96314 29.0418C6.54706 29.2643 6.43094 29.4675 6.42126 29.99C6.42126 30.3868 6.46965 30.5029 6.70188 30.7448L6.98249 31.0254H9.51768H12.0529L12.3335 30.7448C12.5657 30.5029 12.6141 30.3771 12.6141 29.99C12.6141 29.4675 12.4109 29.1579 11.9658 28.9837C11.84 28.9353 10.7175 28.8966 9.48865 28.8966C7.66951 28.8966 7.18569 28.9256 6.96314 29.0418Z" fill="#16A6EC"/>
<path d="M17.2006 29.0805C16.6103 29.4385 16.5329 30.2706 17.0361 30.7738L17.2877 31.0254H19.7938C21.3324 31.0254 22.3774 30.9867 22.4935 30.9286C22.7451 30.7835 22.9677 30.3287 22.9677 29.9223C22.9677 29.6804 22.8806 29.4869 22.687 29.2643L22.4064 28.945L19.9487 28.916C17.6844 28.8966 17.4812 28.9063 17.2006 29.0805Z" fill="#16A6EC"/>
<path d="M35.7788 29.0805C35.1886 29.4385 35.1112 30.2706 35.6143 30.7738L35.8659 31.0254H38.3721C39.9106 31.0254 40.9557 30.9867 41.0718 30.9286C41.3234 30.7835 41.5459 30.3287 41.5459 29.9223C41.5459 29.6804 41.4588 29.4869 41.2653 29.2643L40.9847 28.945L38.5269 28.916C36.2627 28.8966 36.0595 28.9063 35.7788 29.0805Z" fill="#16A6EC"/>
<path d="M35.7788 35.2733C35.1886 35.6314 35.1112 36.4635 35.6143 36.9667L35.8659 37.2183H38.3721C39.9106 37.2183 40.9557 37.1796 41.0718 37.1215C41.3234 36.9764 41.5459 36.5216 41.5459 36.1152C41.5459 35.8733 41.4588 35.6797 41.2653 35.4572L40.9847 35.1379L38.5269 35.1088C36.2627 35.0895 36.0595 35.0992 35.7788 35.2733Z" fill="#16A6EC"/>
<path d="M35.7788 41.4661C35.1886 41.8241 35.1112 42.6563 35.6143 43.1594L35.8659 43.411H38.3721C39.9106 43.411 40.9557 43.3723 41.0718 43.3142C41.3234 43.1691 41.5459 42.7143 41.5459 42.3079C41.5459 42.066 41.4588 41.8725 41.2653 41.6499L40.9847 41.3306L38.5269 41.3016C36.2627 41.2822 36.0595 41.2919 35.7788 41.4661Z" fill="#16A6EC"/>
</svg>
