<svg width="20" height="21" viewBox="0 0 20 21" fill="none" xmlns="http://www.w3.org/2000/svg">
<g clip-path="url(#clip0_0_174)">
<path d="M17.5 8.80341C17.5 14.6367 10 19.6367 10 19.6367C10 19.6367 2.5 14.6367 2.5 8.80341C2.5 6.81428 3.29018 4.90663 4.6967 3.5001C6.10322 2.09358 8.01088 1.30341 10 1.30341C11.9891 1.30341 13.8968 2.09358 15.3033 3.5001C16.7098 4.90663 17.5 6.81428 17.5 8.80341Z" stroke="#717B9E" stroke-linecap="round" stroke-linejoin="round"/>
<path d="M10 11.3034C11.3807 11.3034 12.5 10.1841 12.5 8.80341C12.5 7.42269 11.3807 6.30341 10 6.30341C8.61929 6.30341 7.5 7.42269 7.5 8.80341C7.5 10.1841 8.61929 11.3034 10 11.3034Z" stroke="#717B9E" stroke-linecap="round" stroke-linejoin="round"/>
</g>
<defs>
<clipPath id="clip0_0_174">
<rect width="20" height="20" fill="white" transform="translate(0 0.470093)"/>
</clipPath>
</defs>
</svg>
