<svg width="9" height="13" viewBox="0 0 9 13" fill="none" xmlns="http://www.w3.org/2000/svg">
<path d="M8.20455 3.58373L7.81818 4.90191H0.454545L0.840909 3.58373H8.20455ZM4.75 12.4701L0.590909 7.37918L0.568182 6.42464H2.63636C3.17424 6.42464 3.63258 6.34888 4.01136 6.19737C4.39015 6.04206 4.67992 5.811 4.88068 5.50418C5.08144 5.19358 5.18182 4.80343 5.18182 4.33373C5.18182 3.64055 4.97349 3.09699 4.55682 2.70305C4.14015 2.30532 3.5 2.10646 2.63636 2.10646H0.454545L0.840909 0.833729H2.63636C3.56061 0.833729 4.31818 0.987138 4.90909 1.29396C5.50379 1.59699 5.94318 2.01365 6.22727 2.54396C6.51515 3.07047 6.65909 3.66706 6.65909 4.33373C6.65909 4.936 6.52652 5.49093 6.26136 5.9985C6 6.50229 5.57955 6.90759 5 7.21441C4.42424 7.52123 3.66288 7.67464 2.71591 7.67464H2.68182L6.52273 12.3792V12.4701H4.75ZM8.20455 0.833729L7.81818 2.15191L2.02273 2.10646L2.40909 0.833729H8.20455Z" fill="#717B9E"/>
</svg>
