<svg width="128" height="51" viewBox="0 0 128 51" fill="none" xmlns="http://www.w3.org/2000/svg">
<path d="M11.0114 0.727272V24H6.09091V5.39773H5.95455L0.625 8.73864V4.375L6.38636 0.727272H11.0114ZM25.6676 24.5114C23.7131 24.5038 22.0313 24.0227 20.6222 23.0682C19.2206 22.1136 18.1411 20.7311 17.3835 18.9205C16.6335 17.1098 16.2623 14.9318 16.2699 12.3864C16.2699 9.84848 16.6449 7.68561 17.3949 5.89773C18.1525 4.10985 19.232 2.75 20.6335 1.81818C22.0426 0.878787 23.7206 0.40909 25.6676 0.40909C27.6146 0.40909 29.2888 0.878787 30.6903 1.81818C32.0994 2.75758 33.1828 4.12121 33.9403 5.90909C34.6979 7.68939 35.0729 9.84848 35.0653 12.3864C35.0653 14.9394 34.6866 17.1212 33.929 18.9318C33.179 20.7424 32.1032 22.125 30.7017 23.0795C29.3002 24.0341 27.6222 24.5114 25.6676 24.5114ZM25.6676 20.4318C27.0009 20.4318 28.0653 19.7614 28.8608 18.4205C29.6563 17.0795 30.0502 15.0682 30.0426 12.3864C30.0426 10.6212 29.8608 9.15151 29.4972 7.97727C29.1411 6.80303 28.6335 5.92045 27.9744 5.32954C27.3229 4.73864 26.554 4.44318 25.6676 4.44318C24.3419 4.44318 23.2813 5.10606 22.4858 6.43182C21.6903 7.75758 21.2888 9.74242 21.2812 12.3864C21.2812 14.1742 21.4593 15.6667 21.8153 16.8636C22.179 18.053 22.6903 18.947 23.3494 19.5455C24.0085 20.1364 24.7812 20.4318 25.6676 20.4318ZM43.0057 18.9773L43.017 13.1705H43.7216L49.3125 6.54545H54.8693L47.358 15.3182H46.2102L43.0057 18.9773ZM38.6193 24V0.727272H43.4602V24H38.6193ZM49.5284 24L44.392 16.3977L47.6193 12.9773L55.1989 24H49.5284ZM63.5597 22.7386V6.64773H67.6278V22.7386H63.5597ZM57.5483 16.7273V12.6591H73.6392V16.7273H57.5483Z" fill="#16A6EC"/>
<path d="M7.74432 40.1818C7.66761 39.5341 7.35653 39.0312 6.81108 38.6733C6.26563 38.3153 5.59659 38.1364 4.80398 38.1364C4.22443 38.1364 3.71733 38.2301 3.28267 38.4176C2.85227 38.6051 2.51563 38.8629 2.27273 39.1911C2.03409 39.5192 1.91477 39.892 1.91477 40.3097C1.91477 40.6591 1.99787 40.9595 2.16406 41.2109C2.33452 41.4581 2.55185 41.6648 2.81605 41.831C3.08026 41.9929 3.35724 42.1271 3.64702 42.2337C3.93679 42.3359 4.20312 42.419 4.44602 42.483L5.77557 42.8409C6.11648 42.9304 6.49574 43.054 6.91335 43.2116C7.33523 43.3693 7.73793 43.5845 8.12145 43.8572C8.50923 44.1257 8.82884 44.4709 9.08026 44.8928C9.33168 45.3146 9.45739 45.8324 9.45739 46.446C9.45739 47.1534 9.27202 47.7926 8.90128 48.3636C8.5348 48.9347 7.99787 49.3885 7.29048 49.7251C6.58736 50.0618 5.73295 50.2301 4.72727 50.2301C3.78977 50.2301 2.97798 50.0788 2.2919 49.7763C1.61009 49.4737 1.07315 49.0518 0.681108 48.5107C0.293324 47.9695 0.0738637 47.3409 0.0227273 46.625H1.65909C1.7017 47.1193 1.8679 47.5284 2.15767 47.8523C2.4517 48.1719 2.82244 48.4105 3.26989 48.5682C3.72159 48.7216 4.20739 48.7983 4.72727 48.7983C5.33239 48.7983 5.87571 48.7003 6.35724 48.5043C6.83878 48.304 7.22017 48.027 7.50142 47.6733C7.78267 47.3153 7.9233 46.8977 7.9233 46.4205C7.9233 45.9858 7.80185 45.6321 7.55895 45.3594C7.31605 45.0866 6.99645 44.8651 6.60014 44.6946C6.20384 44.5241 5.77557 44.375 5.31534 44.2472L3.70455 43.7869C2.68182 43.4929 1.87216 43.0732 1.27557 42.5277C0.678977 41.9822 0.380682 41.2685 0.380682 40.3864C0.380682 39.6534 0.578835 39.0142 0.975142 38.4688C1.37571 37.919 1.91264 37.4929 2.58594 37.1903C3.26349 36.8835 4.01989 36.7301 4.85511 36.7301C5.69886 36.7301 6.44886 36.8814 7.10511 37.1839C7.76136 37.4822 8.28125 37.8913 8.66477 38.4112C9.05256 38.9311 9.2571 39.5213 9.27841 40.1818H7.74432ZM16.1291 40.1818V41.4602H11.041V40.1818H16.1291ZM12.524 37.8295H14.0325V47.1875C14.0325 47.6136 14.0943 47.9332 14.2179 48.1463C14.3457 48.3551 14.5076 48.4957 14.7037 48.5682C14.9039 48.6364 15.1149 48.6705 15.3365 48.6705C15.5027 48.6705 15.639 48.6619 15.7456 48.6449C15.8521 48.6236 15.9373 48.6065 16.0012 48.5938L16.3081 49.9489C16.2058 49.9872 16.063 50.0256 15.8798 50.0639C15.6966 50.1065 15.4643 50.1278 15.1831 50.1278C14.7569 50.1278 14.3393 50.0362 13.9302 49.853C13.5254 49.6697 13.1887 49.3906 12.9203 49.0156C12.6561 48.6406 12.524 48.1676 12.524 47.5966V37.8295ZM24.5858 45.9858V40.1818H26.0943V50H24.5858V48.3381H24.4835C24.2534 48.8366 23.8954 49.2607 23.4096 49.6101C22.9238 49.9553 22.3102 50.1278 21.5687 50.1278C20.9551 50.1278 20.4096 49.9936 19.9324 49.7251C19.4551 49.4524 19.0801 49.0433 18.8074 48.4979C18.5346 47.9482 18.3983 47.2557 18.3983 46.4205V40.1818H19.9068V46.3182C19.9068 47.0341 20.1071 47.6051 20.5076 48.0312C20.9125 48.4574 21.4281 48.6705 22.0545 48.6705C22.4295 48.6705 22.8109 48.5746 23.1987 48.3828C23.5907 48.1911 23.9189 47.897 24.1831 47.5007C24.4515 47.1044 24.5858 46.5994 24.5858 45.9858ZM32.5646 50.2045C31.7464 50.2045 31.0241 49.9979 30.3977 49.5845C29.7713 49.1669 29.2813 48.5788 28.9276 47.8203C28.5739 47.0575 28.397 46.1562 28.397 45.1165C28.397 44.0852 28.5739 43.1903 28.9276 42.4318C29.2813 41.6733 29.7734 41.0874 30.4041 40.674C31.0348 40.2607 31.7635 40.054 32.5902 40.054C33.2294 40.054 33.7344 40.1605 34.1051 40.3736C34.4801 40.5824 34.7656 40.821 34.9616 41.0895C35.1619 41.3537 35.3175 41.571 35.4283 41.7415H35.5561V36.9091H37.0646V50H35.6072V48.4915H35.4283C35.3175 48.6705 35.1598 48.8963 34.9553 49.169C34.7507 49.4375 34.4588 49.6783 34.0795 49.8913C33.7003 50.1001 33.1953 50.2045 32.5646 50.2045ZM32.7692 48.8494C33.3743 48.8494 33.8857 48.6918 34.3033 48.3764C34.7209 48.0568 35.0384 47.6158 35.2557 47.0533C35.473 46.4865 35.5817 45.8324 35.5817 45.0909C35.5817 44.358 35.4751 43.7166 35.2621 43.1669C35.049 42.6129 34.7337 42.1825 34.3161 41.8757C33.8984 41.5646 33.3828 41.4091 32.7692 41.4091C32.13 41.4091 31.5973 41.5732 31.1712 41.9013C30.7493 42.2251 30.4318 42.6662 30.2188 43.2244C30.0099 43.7784 29.9055 44.4006 29.9055 45.0909C29.9055 45.7898 30.0121 46.4247 30.2251 46.9957C30.4425 47.5625 30.7621 48.0142 31.1839 48.3509C31.6101 48.6832 32.1385 48.8494 32.7692 48.8494ZM44.1534 50.2045C43.2074 50.2045 42.3913 49.9957 41.7053 49.5781C41.0234 49.1562 40.4972 48.5682 40.1264 47.8139C39.7599 47.0554 39.5767 46.1733 39.5767 45.1676C39.5767 44.1619 39.7599 43.2756 40.1264 42.5085C40.4972 41.7372 41.0128 41.1364 41.6733 40.706C42.3381 40.2713 43.1136 40.054 44 40.054C44.5114 40.054 45.0163 40.1392 45.5149 40.3097C46.0135 40.4801 46.4673 40.7571 46.8764 41.1406C47.2855 41.5199 47.6115 42.0227 47.8544 42.6491C48.0973 43.2756 48.2188 44.0469 48.2188 44.9631V45.6023H40.6506V44.2983H46.6847C46.6847 43.7443 46.5739 43.25 46.3523 42.8153C46.1349 42.3807 45.8239 42.0376 45.419 41.7862C45.0185 41.5348 44.5455 41.4091 44 41.4091C43.3991 41.4091 42.8793 41.5582 42.4403 41.8565C42.0057 42.1506 41.6712 42.5341 41.4368 43.0071C41.2024 43.4801 41.0852 43.9872 41.0852 44.5284V45.3977C41.0852 46.1392 41.2131 46.7678 41.4688 47.2834C41.7287 47.7947 42.0888 48.1847 42.549 48.4531C43.0092 48.7173 43.544 48.8494 44.1534 48.8494C44.5497 48.8494 44.9077 48.794 45.2273 48.6832C45.5511 48.5682 45.8303 48.3977 46.0646 48.1719C46.299 47.9418 46.4801 47.6562 46.608 47.3153L48.0653 47.7244C47.9119 48.2188 47.6541 48.6534 47.2919 49.0284C46.9297 49.3991 46.4822 49.6889 45.9496 49.8977C45.4169 50.1023 44.8182 50.2045 44.1534 50.2045ZM52.022 44.0938V50H50.5135V40.1818H51.9709V41.7159H52.0987C52.3288 41.2173 52.6783 40.8168 53.147 40.5142C53.6158 40.2074 54.2209 40.054 54.9624 40.054C55.6271 40.054 56.2088 40.1903 56.7074 40.4631C57.206 40.7315 57.5938 41.1406 57.8707 41.6903C58.1477 42.2358 58.2862 42.9261 58.2862 43.7614V50H56.7777V43.8636C56.7777 43.0923 56.5774 42.4915 56.1768 42.0611C55.7763 41.6264 55.2266 41.4091 54.5277 41.4091C54.0462 41.4091 53.6158 41.5135 53.2365 41.7223C52.8615 41.9311 52.5653 42.2358 52.348 42.6364C52.1307 43.0369 52.022 43.5227 52.022 44.0938ZM65.3127 40.1818V41.4602H60.2246V40.1818H65.3127ZM61.7076 37.8295H63.2161V47.1875C63.2161 47.6136 63.2779 47.9332 63.4015 48.1463C63.5293 48.3551 63.6912 48.4957 63.8873 48.5682C64.0875 48.6364 64.2985 48.6705 64.5201 48.6705C64.6863 48.6705 64.8226 48.6619 64.9292 48.6449C65.0357 48.6236 65.1209 48.6065 65.1848 48.5938L65.4917 49.9489C65.3894 49.9872 65.2466 50.0256 65.0634 50.0639C64.8801 50.1065 64.6479 50.1278 64.3667 50.1278C63.9405 50.1278 63.5229 50.0362 63.1138 49.853C62.709 49.6697 62.3723 49.3906 62.1039 49.0156C61.8397 48.6406 61.7076 48.1676 61.7076 47.5966V37.8295ZM72.8489 50V36.9091H77.2722C78.2992 36.9091 79.1387 37.0945 79.7907 37.4652C80.4469 37.8317 80.9327 38.3281 81.248 38.9545C81.5634 39.581 81.7211 40.2798 81.7211 41.0511C81.7211 41.8224 81.5634 42.5234 81.248 43.1541C80.937 43.7848 80.4554 44.2876 79.8034 44.6626C79.1515 45.0334 78.3162 45.2188 77.2978 45.2188H74.1273V43.8125H77.2466C77.9498 43.8125 78.5144 43.6911 78.9405 43.4482C79.3667 43.2053 79.6756 42.8771 79.8674 42.4638C80.0634 42.0462 80.1614 41.5753 80.1614 41.0511C80.1614 40.527 80.0634 40.0582 79.8674 39.6449C79.6756 39.2315 79.3645 38.9077 78.9341 38.6733C78.5037 38.4347 77.9327 38.3153 77.2211 38.3153H74.4341V50H72.8489ZM85.5787 36.9091V50H84.0701V36.9091H85.5787ZM91.2308 50.2301C90.6087 50.2301 90.044 50.1129 89.5369 49.8786C89.0298 49.6399 88.6271 49.2969 88.3288 48.8494C88.0305 48.3977 87.8814 47.8523 87.8814 47.2131C87.8814 46.6506 87.9922 46.1946 88.2138 45.8452C88.4354 45.4915 88.7315 45.2145 89.1023 45.0142C89.473 44.8139 89.8821 44.6648 90.3295 44.5668C90.7813 44.4645 91.2351 44.3835 91.6911 44.3239C92.2876 44.2472 92.7713 44.1896 93.142 44.1513C93.517 44.1087 93.7898 44.0384 93.9602 43.9403C94.1349 43.8423 94.2223 43.6719 94.2223 43.429V43.3778C94.2223 42.7472 94.0497 42.2571 93.7045 41.9077C93.3636 41.5582 92.8459 41.3835 92.1513 41.3835C91.4311 41.3835 90.8665 41.5412 90.4574 41.8565C90.0483 42.1719 89.7607 42.5085 89.5945 42.8665L88.1626 42.3551C88.4183 41.7585 88.7592 41.294 89.1854 40.9616C89.6158 40.625 90.0845 40.3906 90.5916 40.2585C91.103 40.1222 91.6058 40.054 92.1001 40.054C92.4155 40.054 92.7777 40.0923 93.1868 40.169C93.6001 40.2415 93.9986 40.3928 94.3821 40.6229C94.7699 40.853 95.0916 41.2003 95.3473 41.6648C95.603 42.1293 95.7308 42.7514 95.7308 43.5312V50H94.2223V48.6705H94.1456C94.0433 48.8835 93.8729 49.1115 93.6342 49.3544C93.3956 49.5973 93.0781 49.804 92.6818 49.9744C92.2855 50.1449 91.8018 50.2301 91.2308 50.2301ZM91.4609 48.875C92.0575 48.875 92.5604 48.7578 92.9695 48.5234C93.3828 48.2891 93.6939 47.9865 93.9027 47.6158C94.1158 47.245 94.2223 46.8551 94.2223 46.446V45.0653C94.1584 45.142 94.0178 45.2124 93.8004 45.2763C93.5874 45.3359 93.3402 45.3892 93.0589 45.4361C92.782 45.4787 92.5114 45.517 92.2472 45.5511C91.9872 45.581 91.7763 45.6065 91.6143 45.6278C91.2223 45.679 90.8558 45.7621 90.5149 45.8771C90.1783 45.9879 89.9055 46.1562 89.6967 46.3821C89.4922 46.6037 89.3899 46.9062 89.3899 47.2898C89.3899 47.8139 89.5838 48.2102 89.9716 48.4787C90.3636 48.7429 90.8601 48.875 91.4609 48.875ZM102.473 50.2045C101.552 50.2045 100.76 49.9872 100.095 49.5526C99.4302 49.1179 98.9189 48.5192 98.5609 47.7564C98.2029 46.9936 98.024 46.1222 98.024 45.142C98.024 44.1449 98.2072 43.2649 98.5737 42.5021C98.9444 41.7351 99.46 41.1364 100.121 40.706C100.785 40.2713 101.561 40.054 102.447 40.054C103.138 40.054 103.76 40.1818 104.314 40.4375C104.868 40.6932 105.322 41.0511 105.675 41.5114C106.029 41.9716 106.248 42.5085 106.334 43.1222H104.825C104.71 42.6747 104.454 42.2784 104.058 41.9332C103.666 41.5838 103.138 41.4091 102.473 41.4091C101.885 41.4091 101.369 41.5625 100.926 41.8693C100.487 42.1719 100.144 42.6001 99.8968 43.1541C99.6539 43.7038 99.5325 44.3494 99.5325 45.0909C99.5325 45.8494 99.6518 46.5099 99.8904 47.0724C100.133 47.6349 100.474 48.0717 100.913 48.3828C101.356 48.6939 101.876 48.8494 102.473 48.8494C102.865 48.8494 103.221 48.7812 103.54 48.6449C103.86 48.5085 104.131 48.3125 104.352 48.0568C104.574 47.8011 104.731 47.4943 104.825 47.1364H106.334C106.248 47.7159 106.037 48.2379 105.701 48.7024C105.368 49.1626 104.927 49.5291 104.378 49.8018C103.832 50.0703 103.197 50.2045 102.473 50.2045ZM112.655 50.2045C111.709 50.2045 110.893 49.9957 110.207 49.5781C109.525 49.1562 108.999 48.5682 108.628 47.8139C108.262 47.0554 108.079 46.1733 108.079 45.1676C108.079 44.1619 108.262 43.2756 108.628 42.5085C108.999 41.7372 109.515 41.1364 110.175 40.706C110.84 40.2713 111.616 40.054 112.502 40.054C113.013 40.054 113.518 40.1392 114.017 40.3097C114.515 40.4801 114.969 40.7571 115.378 41.1406C115.787 41.5199 116.113 42.0227 116.356 42.6491C116.599 43.2756 116.721 44.0469 116.721 44.9631V45.6023H109.153V44.2983H115.187C115.187 43.7443 115.076 43.25 114.854 42.8153C114.637 42.3807 114.326 42.0376 113.921 41.7862C113.52 41.5348 113.047 41.4091 112.502 41.4091C111.901 41.4091 111.381 41.5582 110.942 41.8565C110.508 42.1506 110.173 42.5341 109.939 43.0071C109.704 43.4801 109.587 43.9872 109.587 44.5284V45.3977C109.587 46.1392 109.715 46.7678 109.971 47.2834C110.231 47.7947 110.591 48.1847 111.051 48.4531C111.511 48.7173 112.046 48.8494 112.655 48.8494C113.052 48.8494 113.41 48.794 113.729 48.6832C114.053 48.5682 114.332 48.3977 114.567 48.1719C114.801 47.9418 114.982 47.6562 115.11 47.3153L116.567 47.7244C116.414 48.2188 116.156 48.6534 115.794 49.0284C115.432 49.3991 114.984 49.6889 114.452 49.8977C113.919 50.1023 113.32 50.2045 112.655 50.2045ZM122.723 50.2045C121.905 50.2045 121.182 49.9979 120.556 49.5845C119.93 49.1669 119.439 48.5788 119.086 47.8203C118.732 47.0575 118.555 46.1562 118.555 45.1165C118.555 44.0852 118.732 43.1903 119.086 42.4318C119.439 41.6733 119.932 41.0874 120.562 40.674C121.193 40.2607 121.922 40.054 122.748 40.054C123.388 40.054 123.893 40.1605 124.263 40.3736C124.638 40.5824 124.924 40.821 125.12 41.0895C125.32 41.3537 125.476 41.571 125.586 41.7415H125.714V36.9091H127.223V50H125.765V48.4915H125.586C125.476 48.6705 125.318 48.8963 125.113 49.169C124.909 49.4375 124.617 49.6783 124.238 49.8913C123.858 50.1001 123.354 50.2045 122.723 50.2045ZM122.927 48.8494C123.532 48.8494 124.044 48.6918 124.461 48.3764C124.879 48.0568 125.197 47.6158 125.414 47.0533C125.631 46.4865 125.74 45.8324 125.74 45.0909C125.74 44.358 125.633 43.7166 125.42 43.1669C125.207 42.6129 124.892 42.1825 124.474 41.8757C124.057 41.5646 123.541 41.4091 122.927 41.4091C122.288 41.4091 121.756 41.5732 121.329 41.9013C120.907 42.2251 120.59 42.6662 120.377 43.2244C120.168 43.7784 120.064 44.4006 120.064 45.0909C120.064 45.7898 120.17 46.4247 120.383 46.9957C120.601 47.5625 120.92 48.0142 121.342 48.3509C121.768 48.6832 122.297 48.8494 122.927 48.8494Z" fill="#333333"/>
</svg>
